<svg width="175" height="34" xmlns="http://www.w3.org/2000/svg">
 <defs>
  <clipPath id="clip0">
   <rect id="svg_1" fill="white" height="33.4559" width="175"/>
  </clipPath>
 </defs>
 <g>
  <title>background</title>
  <rect fill="none" id="canvas_background" height="402" width="582" y="-1" x="-1"/>
 </g>
 <g>
  <title>Layer 1</title>
  <g id="svg_2" clip-path="url(#clip0)">
   <path id="svg_3" fill="#e7ebec" d="m68.207558,2.76912l9.342003,5.29916l-9.342003,5.25958l0,-10.55874z"/>
   <path id="svg_4" fill="#e7ebec" d="m23.148762,0.31746c0.281898,0 0.523499,0.07909 0.724899,0.27682c0.2013,0.19773 0.3221,0.43501 0.3221,0.75137l0,21.98751c0,0.276901 -0.1208,0.514101 -0.3221,0.711901c-0.201401,0.197701 -0.443001,0.316299 -0.724899,0.316299l-0.040201,0c-0.2819,0 -0.5235,-0.118599 -0.7248,-0.316299c-0.201399,-0.1978 -0.322199,-0.434999 -0.322199,-0.711901l0,-21.98751c0,-0.27682 0.1208,-0.51409 0.322199,-0.75137c0.2013,-0.19773 0.4429,-0.27682 0.7248,-0.27682l0.040201,0z"/>
   <path id="svg_5" fill="#e7ebec" d="m15.25646,9.65016c1.6912,1.6609 2.577101,3.7173 2.577101,6.0901l0,7.553302c0,0.276798 -0.1208,0.514099 -0.3221,0.7118c-0.201401,0.197699 -0.443001,0.316399 -0.7248,0.316399l-0.0403,0c-0.2819,0 -0.5235,-0.1187 -0.7248,-0.316399c-0.201301,-0.197701 -0.322101,-0.435001 -0.322101,-0.7118l0,-1.898201c-2.2147,1.9377 -4.4294,2.886801 -6.64408,2.886801c-2.41601,0 -4.469629,-0.830502 -6.2011,-2.530901c-1.69121,-1.621399 -2.53682,-3.6383 -2.53682,-6.011001c0,-2.3728 0.84561,-4.3896 2.57708,-6.0901c1.69121,-1.66093 3.78509,-2.530939 6.201109,-2.530939c2.37571,0.039539 4.429311,0.870009 6.16081,2.530939zm-10.87204,1.5027c-1.28854,1.2655 -1.93281,2.8078 -1.93281,4.5874c0,1.7795 0.64427,3.321801 1.93281,4.626901c1.28854,1.2654 2.85895,1.898201 4.711229,1.898201c1.812011,0 3.38241,-0.632801 4.67101,-1.898201c1.288501,-1.265499 1.9328,-2.8078 1.9328,-4.626901c0,-1.7796 -0.6443,-3.3219 -1.9328,-4.5874c-1.2886,-1.26542 -2.8187,-1.89816 -4.67101,-1.89816c-1.85228,-0.03955 -3.422689,0.59319 -4.711229,1.89816z"/>
   <path id="svg_6" fill="#e7ebec" d="m89.146255,0.31746c0.281807,0 0.523407,0.07909 0.765007,0.27682c0.201393,0.19773 0.281898,0.43501 0.281898,0.75137l0,0.03955c0,0.27682 -0.080505,0.5141 -0.281898,0.75137c-0.201302,0.19773 -0.442902,0.27683 -0.765007,0.27683l-0.9664,0c-1.207993,0 -2.214699,0.435 -3.060295,1.26547c-0.845604,0.830461 -1.248299,1.81911 -1.288605,3.00549l0,0.5141l5.3153,0c0.281807,0 0.523407,0.11864 0.765007,0.31636c0.201393,0.19773 0.281898,0.43501 0.281898,0.71183l0,0.03955c0,0.27682 -0.080505,0.5141 -0.281898,0.75137c-0.201302,0.197729 -0.442902,0.31637 -0.765007,0.31637l-5.3153,0l0,14.078321c0,0.276899 -0.120796,0.514099 -0.322098,0.711899c-0.201302,0.197701 -0.442902,0.316299 -0.7248,0.316299l-0.040298,0c-0.281799,0 -0.523399,-0.118599 -0.7248,-0.316299c-0.201302,-0.1978 -0.322098,-0.434999 -0.322098,-0.711899l0,-16.767451c0.040298,-1.77956 0.644295,-3.24277 1.892494,-4.46869c1.288605,-1.22592 2.778503,-1.85866 4.5905,-1.85866l0.9664,0z"/>
   <path id="svg_7" fill="#e7ebec" d="m95.629158,2.96703c-0.402702,0 -0.7248,-0.11863 -0.9664,-0.39546c-0.2416,-0.23727 -0.402702,-0.55364 -0.402702,-0.9491c0,-0.35591 0.120804,-0.67228 0.402702,-0.9491c0.2416,-0.23728 0.563698,-0.39546 0.9664,-0.39546c0.362404,0 0.684502,0.11864 0.9664,0.39546c0.281898,0.27682 0.402702,0.59319 0.402702,0.9491c0,0.35592 -0.120804,0.67228 -0.402702,0.9491c-0.281898,0.27683 -0.563698,0.39546 -0.9664,0.39546zm0.040298,4.19188c0.281799,0 0.523399,0.118629 0.7248,0.31636c0.201302,0.19773 0.322105,0.43501 0.322105,0.75138l0,15.146111c0,0.2768 -0.120804,0.514101 -0.322105,0.7118c-0.201401,0.197701 -0.443001,0.316401 -0.7248,0.316401l-0.040298,0c-0.281898,0 -0.523499,-0.1187 -0.7248,-0.316401c-0.201302,-0.197699 -0.322098,-0.434999 -0.322098,-0.7118l0,-15.18566c0,-0.27682 0.120796,-0.5141 0.322098,-0.75137c0.161102,-0.19773 0.442902,-0.276819 0.765099,-0.276819z"/>
   <path id="svg_8" fill="#e7ebec" d="m115.883461,9.65015c1.691002,1.66091 2.576996,3.71731 2.576996,6.09011l0,7.553201c0,0.276899 -0.120995,0.514101 -0.321999,0.711901c-0.200996,0.197699 -0.443001,0.316299 -0.724998,0.316299l-0.040001,0c-0.281998,0 -0.524002,-0.118601 -0.724998,-0.316299c-0.201004,-0.1978 -0.321999,-0.435001 -0.321999,-0.711901l0,-1.898199c-2.215004,1.937799 -4.429001,2.8869 -6.644005,2.8869c-2.416,0 -4.470001,-0.830502 -6.200996,-2.530901c-1.691002,-1.660999 -2.577003,-3.7174 -2.577003,-6.0901c0,-2.372801 0.845001,-4.389601 2.577003,-6.0901c1.691002,-1.66093 3.784996,-2.53094 6.200996,-2.53094c2.416,0.11863 4.510002,0.9491 6.201004,2.61003zm-10.872002,1.502709c-1.289001,1.2655 -1.932999,2.8078 -1.932999,4.5874c0,1.7795 0.643997,3.321801 1.932999,4.626801c1.288002,1.265499 2.859001,1.8983 4.710999,1.8983c1.812004,0 3.383003,-0.632801 4.670998,-1.8983c1.289001,-1.2654 1.933006,-2.807701 1.933006,-4.626801c0,-1.7796 -0.644005,-3.3219 -1.933006,-4.5874c-1.287994,-1.265429 -2.818993,-1.89817 -4.670998,-1.89817c-1.851997,-0.03955 -3.422997,0.59319 -4.710999,1.89817z"/>
   <path id="svg_9" fill="#e7ebec" d="m124.822456,23.294062c0,0.2768 -0.120995,0.514099 -0.321999,0.7118c-0.200996,0.197701 -0.443001,0.316299 -0.724998,0.316299l-0.040001,0c-0.281998,0 -0.523003,-0.118599 -0.724998,-0.316299c-0.201004,-0.197701 -0.321999,-0.434999 -0.321999,-0.7118l0,-9.095602c0,-1.937799 0.684998,-3.5987 2.093994,-4.98281c1.409004,-1.384109 3.101006,-2.056389 5.074005,-2.056389c1.972992,0 3.664001,0.672279 5.072998,2.056389c1.410004,1.38411 2.093994,3.045011 2.093994,4.98281l0,9.095602c0,0.2768 -0.120987,0.514099 -0.321991,0.7118c-0.201004,0.197701 -0.443008,0.316299 -0.725006,0.316299l-0.039993,0c-0.281998,0 -0.524002,-0.118599 -0.764999,-0.316299c-0.202011,-0.197701 -0.322006,-0.434999 -0.322006,-0.7118l0,-9.095602c0,-1.3841 -0.483994,-2.530999 -1.48999,-3.5196c-1.007004,-0.98866 -2.175003,-1.46321 -3.584015,-1.46321c-1.408997,0 -2.576996,0.47455 -3.583992,1.46321c-0.966003,0.988601 -1.489998,2.1355 -1.489998,3.5196l0,9.095602l0.120995,0z"/>
   <path id="svg_10" fill="#e7ebec" d="m152.687454,7.554211c0.483002,0.15819 0.725006,0.47456 0.725006,0.949109l0,0.11863c0,0.35592 -0.121002,0.63274 -0.403,0.83047c-0.281998,0.19773 -0.604004,0.27682 -0.925995,0.15818c-0.644012,-0.23727 -1.32901,-0.31636 -2.013,-0.31636c-1.812012,0 -3.383011,0.63273 -4.712006,1.89822c-1.287994,1.2655 -1.932999,2.8077 -1.932999,4.6269c0,1.779502 0.645004,3.321801 1.932999,4.5873c1.289001,1.265501 2.858994,1.898201 4.712006,1.898201c0.68399,0 1.368988,-0.118601 2.013,-0.316401c0.321991,-0.118599 0.643997,-0.0791 0.925995,0.1187c0.281998,0.197701 0.403,0.474501 0.403,0.8304c0,0.4746 -0.242004,0.791 -0.725006,0.9491c-0.845993,0.276899 -1.731995,0.3955 -2.65799,0.3955c-2.416,0 -4.469009,-0.830502 -6.201004,-2.530901c-1.690994,-1.660999 -2.576996,-3.7174 -2.576996,-6.0901c0,-2.372801 0.845993,-4.389601 2.576996,-6.0901c1.690994,-1.66093 3.785004,-2.53094 6.201004,-2.53094c0.925995,0.11863 1.811996,0.23727 2.65799,0.514091z"/>
   <path id="svg_11" fill="#e7ebec" d="m166.418457,7.159261c2.416,0 4.470001,0.83046 6.201004,2.530939c1.690994,1.66096 2.576996,3.71736 2.576996,6.09006c0,2.372801 -0.845001,4.389601 -2.576996,6.090101c-1.69101,1.6609 -3.785004,2.530899 -6.201004,2.530899c-2.416,0 -4.468994,-0.830399 -6.201004,-2.530899c-1.690994,-1.6609 -2.576996,-3.7173 -2.576996,-6.090101c0,-2.3727 0.846008,-4.3896 2.576996,-6.09006c1.73201,-1.70048 3.785004,-2.530939 6.201004,-2.530939zm0,2.095929c-1.811996,0 -3.382004,0.63274 -4.710999,1.89817c-1.289001,1.2655 -1.932999,2.807799 -1.932999,4.6269c0,1.7796 0.643997,3.321901 1.932999,4.587301c1.287994,1.265499 2.858994,1.8983 4.710999,1.8983c1.852005,0 3.382996,-0.632801 4.671005,-1.8983c1.289001,-1.2654 1.932999,-2.807701 1.932999,-4.587301c0,-1.7796 -0.643997,-3.3218 -1.932999,-4.6269c-1.248001,-1.26543 -2.819,-1.89817 -4.671005,-1.89817z"/>
   <path id="svg_12" fill="#e7ebec" d="m29.51086,0.31746c0.2819,0 0.5235,0.07909 0.7248,0.27682c0.201401,0.19773 0.322201,0.43501 0.322201,0.75137l0,5.81326l3.543499,0c0.281799,0 0.523399,0.11864 0.7248,0.31637c0.201298,0.197729 0.322098,0.434999 0.322098,0.751369l0,0.03955c0,0.27682 -0.1208,0.51409 -0.322098,0.71182c-0.201401,0.19773 -0.443001,0.31637 -0.7248,0.31637l-3.543499,0l0,10.796072c0,0.593199 0.2013,1.1073 0.644199,1.502699c0.443001,0.434999 0.9664,0.632801 1.5704,0.632801l1.369099,0c0.281898,0 0.523499,0.118599 0.7248,0.316299c0.201401,0.1978 0.322201,0.434999 0.322201,0.7514l0,0.039499c0,0.276901 -0.1208,0.514101 -0.322201,0.711901c-0.201302,0.197701 -0.442902,0.316299 -0.7248,0.316299l-1.369099,0c-1.208,0 -2.2146,-0.395399 -3.0602,-1.225899c-0.8456,-0.8304 -1.248301,-1.819101 -1.248301,-3.005501l0,-18.784311c0,-0.27682 0.1208,-0.51409 0.3221,-0.75137c0.1611,-0.19773 0.4027,-0.27682 0.684601,-0.27682l0.040199,0z"/>
   <path id="svg_13" fill="#e7ebec" d="m41.51046,17.28256c0,1.3841 0.4832,2.530901 1.489899,3.5196c1.006599,0.9491 2.1744,1.463202 3.583702,1.463202c1.409397,0 2.577099,-0.4746 3.583797,-1.463202c0.9664,-0.988699 1.489799,-2.1355 1.489799,-3.5196l0,-9.0956c0,-0.27682 0.1208,-0.5141 0.322201,-0.751369c0.201302,-0.19773 0.442902,-0.31637 0.764999,-0.31637l0.040302,0c0.281898,0 0.523499,0.11864 0.7248,0.31637c0.201401,0.197729 0.322201,0.434999 0.322201,0.751369l0,9.0956c0,1.9377 -0.684601,3.598701 -2.093903,4.982801c-1.409401,1.3841 -3.100597,2.056398 -5.0737,2.056398c-1.973,0 -3.6642,-0.672298 -5.073601,-2.056398c-1.489899,-1.3841 -2.214699,-3.045101 -2.214699,-4.982801l0,-9.0956c0,-0.27682 0.1208,-0.5141 0.322201,-0.751369c0.201298,-0.19773 0.442898,-0.31637 0.7248,-0.31637l0.040199,0c0.281898,0 0.523499,0.11864 0.7248,0.31637c0.201401,0.197729 0.322201,0.434999 0.322201,0.751369l0,9.0956z"/>
   <path id="svg_14" fill="#e7ebec" d="m83.790657,31.242161c-0.040298,-0.0396 -0.080498,-0.0396 -0.120796,-0.0791c-0.040298,-0.039499 -0.120804,-0.0791 -0.201302,-0.118601c-0.080597,-0.039598 -0.161102,-0.0791 -0.281898,-0.0791c-0.120804,-0.0396 -0.201302,-0.0396 -0.322105,-0.0396c-0.201393,0 -0.322197,0.0396 -0.402695,0.1187c-0.080498,0.079 -0.120804,0.1581 -0.120804,0.2768c0,0.0791 0,0.118601 0.040306,0.158201c0.040199,0.039499 0.080498,0.0791 0.160995,0.118599c0.080597,0.039501 0.161102,0.0791 0.2416,0.0791c0.080597,0.039501 0.201401,0.039501 0.362404,0.079102c0.161095,0.039499 0.322197,0.0791 0.442993,0.158199c0.120804,0.0791 0.2416,0.118597 0.362404,0.197699c0.080498,0.079102 0.161003,0.158199 0.2416,0.276798c0.080498,0.118702 0.080498,0.237301 0.080498,0.3955c0,0.197701 -0.040298,0.3559 -0.120796,0.474503c-0.080505,0.118698 -0.161102,0.237297 -0.281898,0.316399c-0.120804,0.079102 -0.2416,0.118599 -0.402603,0.158199c-0.161102,0.039501 -0.322197,0.039501 -0.4832,0.039501c-0.2416,0 -0.523499,-0.039501 -0.765099,-0.118599c-0.2416,-0.079102 -0.4832,-0.197701 -0.684502,-0.316402l0.281799,-0.5536c0.040298,0.039501 0.080605,0.079102 0.161102,0.118603c0.080498,0.039597 0.161102,0.079098 0.281898,0.158199c0.120804,0.0396 0.201302,0.079098 0.362396,0.118599c0.120804,0.0396 0.2416,0.0396 0.402603,0.0396c0.362404,0 0.563797,-0.118599 0.563797,-0.3559c0,-0.079102 -0.040298,-0.118702 -0.080597,-0.1978c-0.040199,-0.079002 -0.120796,-0.079002 -0.161003,-0.118603c-0.040298,-0.039497 -0.161095,-0.079098 -0.281898,-0.118599c-0.120796,-0.0396 -0.2416,-0.079098 -0.362396,-0.118698c-0.161102,-0.039501 -0.322098,-0.079102 -0.442902,-0.158199c-0.120796,-0.039501 -0.2416,-0.118603 -0.322197,-0.197701c-0.080505,-0.0791 -0.161003,-0.158199 -0.201302,-0.237299c-0.040298,-0.0791 -0.080498,-0.197701 -0.080498,-0.3559c0,-0.158201 0.040199,-0.316301 0.080498,-0.474501c0.040298,-0.158199 0.161102,-0.237301 0.281898,-0.316401c0.120804,-0.0791 0.2416,-0.158199 0.402603,-0.197699c0.161095,-0.0396 0.322197,-0.079102 0.4832,-0.079102c0.2416,0 0.4832,0.039501 0.684593,0.118601c0.201302,0.0791 0.402603,0.158199 0.523407,0.2768l-0.322105,0.553699z"/>
   <path id="svg_15" fill="#e7ebec" d="m88.824059,33.140358l0,0.593201l-2.416,0l0,-3.400997l2.375702,0l0,0.593199l-1.6912,0l0,0.830502l1.4496,0l0,0.553598l-1.4496,0l0,0.830498l1.731499,0z"/>
   <path id="svg_16" fill="#e7ebec" d="m93.857361,33.733559l0,-2.254097l-0.885902,1.660896l-0.362396,0l-0.885902,-1.660896l0,2.254097l-0.684502,0l0,-3.400997l0.7248,0l1.006699,1.937798l1.046906,-1.937798l0.7248,0l0,3.400997l-0.684502,0z"/>
   <path id="svg_17" fill="#e7ebec" d="m96.957863,33.733559l0,-3.400997l1.449593,0c0.161003,0 0.322105,0.0396 0.442902,0.0791c0.120804,0.0791 0.2416,0.158199 0.362404,0.276899c0.120796,0.118601 0.161095,0.2372 0.2416,0.3559c0.040298,0.118601 0.080498,0.2768 0.080498,0.395401c0,0.158199 -0.040199,0.2768 -0.080498,0.434999c-0.040298,0.1187 -0.120804,0.237299 -0.201302,0.355898c-0.080597,0.118702 -0.201401,0.1978 -0.322197,0.237301c-0.120804,0.079098 -0.281807,0.079098 -0.442902,0.079098l-0.805305,0l0,1.146801l-0.724792,0l0,0.0396zm0.684494,-1.7005l0.765099,0c0.120804,0 0.2416,-0.039497 0.322105,-0.158197c0.080498,-0.118599 0.120796,-0.2372 0.120796,-0.395399c0,-0.079102 0,-0.158201 -0.040298,-0.237301c-0.040199,-0.0791 -0.040199,-0.118599 -0.120796,-0.158199c-0.040207,-0.039501 -0.080505,-0.0791 -0.161003,-0.118601c-0.040298,-0.0396 -0.120804,-0.0396 -0.161102,-0.0396l-0.765099,0l0,1.107298l0.040298,0z"/>
   <path id="svg_18" fill="#e7ebec" d="m101.709457,33.733559l0,-3.400997l0.683998,0l0,2.807796l1.772003,0l0,0.593201l-2.456001,0z"/>
   <path id="svg_19" fill="#e7ebec" d="m106.25946,33.733559l0,-3.400997l0.684998,0l0,3.400997l-0.684998,0z"/>
   <path id="svg_20" fill="#e7ebec" d="m109.158463,31.993561c0,-0.1978 0.041,-0.3955 0.120995,-0.632799c0.081001,-0.197701 0.201004,-0.395401 0.321999,-0.5536c0.161003,-0.158201 0.322006,-0.2768 0.524002,-0.3955c0.201004,-0.118601 0.443001,-0.158199 0.724998,-0.158199c0.322006,0 0.604004,0.0791 0.845001,0.1978c0.242004,0.118599 0.403,0.316299 0.524002,0.5536l-0.524002,0.3559c-0.040001,-0.079102 -0.120995,-0.158201 -0.160995,-0.237301c-0.040001,-0.079 -0.121002,-0.118599 -0.201004,-0.1581c-0.081001,-0.0396 -0.160995,-0.0791 -0.241997,-0.0791c-0.080002,0 -0.161003,-0.0396 -0.241005,-0.0396c-0.161995,0 -0.322998,0.0396 -0.443001,0.1187c-0.120995,0.0791 -0.241997,0.1581 -0.322998,0.2768c-0.080002,0.118601 -0.160995,0.237301 -0.200996,0.3559c-0.040001,0.118601 -0.080002,0.2768 -0.080002,0.3955c0,0.1581 0.040001,0.276798 0.080002,0.434998c0.040001,0.1581 0.120995,0.276802 0.200996,0.3559c0.081001,0.118603 0.202003,0.197701 0.322998,0.237301c0.120003,0.078999 0.281006,0.078999 0.402,0.078999c0.081001,0 0.161003,0 0.242004,-0.039497c0.080002,0 0.160995,-0.039501 0.240997,-0.079102c0.081001,-0.039501 0.162003,-0.079098 0.202003,-0.158199c0.080002,-0.079102 0.120995,-0.158199 0.160995,-0.237301l0.564003,0.316402c-0.041,0.118698 -0.121002,0.237297 -0.241997,0.3559c-0.121002,0.079098 -0.201004,0.1978 -0.362007,0.237297c-0.120995,0.079102 -0.281998,0.118603 -0.403,0.158203c-0.120995,0.039497 -0.281998,0.039497 -0.442993,0.039497c-0.242004,0 -0.483002,-0.039497 -0.685005,-0.1581c-0.200996,-0.118698 -0.362,-0.237301 -0.522995,-0.3955c-0.161003,-0.158199 -0.282005,-0.3559 -0.362,-0.553699c0,-0.1581 -0.041,-0.3559 -0.041,-0.593098z"/>
   <path id="svg_21" fill="#e7ebec" d="m116.809456,33.140358l0,0.593201l-2.416,0l0,-3.400997l2.376007,0l0,0.593199l-1.691002,0l0,0.830502l1.448997,0l0,0.553598l-1.448997,0l0,0.830498l1.730995,0z"/>
   <path id="svg_22" fill="#e7ebec" d="m121.883461,33.733559l0,-2.254097l-0.886002,1.660896l-0.362999,0l-0.885002,-1.660896l0,2.254097l-0.684998,0l0,-3.400997l0.724998,0l1.006996,1.937798l1.046005,-1.937798l0.724998,0l0,3.400997l-0.683998,0z"/>
   <path id="svg_23" fill="#e7ebec" d="m127.359459,33.140358l0,0.593201l-2.416,0l0,-3.400997l2.375999,0l0,0.593199l-1.691002,0l0,0.830502l1.449005,0l0,0.553598l-1.449005,0l0,0.830498l1.731003,0z"/>
   <path id="svg_24" fill="#e7ebec" d="m130.258453,31.558561l0,2.174997l-0.68399,0l0,-3.400997l0.522995,0l1.811996,2.214596l0,-2.214596l0.684998,0l0,3.400997l-0.563995,0l-1.772003,-2.174997z"/>
   <path id="svg_25" fill="#e7ebec" d="m137.627457,30.92576l-1.08699,0l0,2.807798l-0.685013,0l0,-2.807798l-1.08699,0l0,-0.593199l2.899002,0l0,0.593199l-0.040009,0z"/>
   <path id="svg_26" fill="#e7ebec" d="m142.137466,33.140358l0,0.593201l-2.416,0l0,-3.400997l2.375992,0l0,0.593199l-1.690994,0l0,0.830502l1.44899,0l0,0.553598l-1.44899,0l0,0.830498l1.731003,0z"/>
   <path id="svg_27" fill="#e7ebec" d="m147.251465,33.733559l0,-3.400997l2.334991,0l0,0.593199l-1.651001,0l0,0.870001l1.369003,0l0,0.553699l-1.369003,0l0,1.423599l-0.68399,0l0,-0.039501z"/>
   <path id="svg_28" fill="#e7ebec" d="m153.210464,33.179958c0.161987,0 0.281998,-0.0396 0.403,-0.079098c0.121002,-0.0396 0.200989,-0.158203 0.281998,-0.237301c0.080994,-0.118599 0.121002,-0.237301 0.160995,-0.3559c0.040009,-0.118702 0.040009,-0.276798 0.040009,-0.3955l0,-1.739998l0.684998,0l0,1.739998c0,0.237301 -0.040009,0.434998 -0.081009,0.672298c-0.039993,0.197701 -0.160995,0.3955 -0.281998,0.5536c-0.119995,0.158199 -0.280991,0.276901 -0.483002,0.355999c-0.200989,0.079102 -0.401993,0.118603 -0.68399,0.118603c-0.282013,0 -0.524002,-0.039501 -0.685013,-0.158199c-0.200989,-0.079102 -0.362,-0.237301 -0.482986,-0.355904c-0.121002,-0.158199 -0.201004,-0.316399 -0.242004,-0.553596c-0.040009,-0.197803 -0.080002,-0.435101 -0.080002,-0.632801l0,-1.739998l0.684006,0l0,1.739998c0,0.158199 0,0.276798 0.041,0.3955c0.039993,0.118599 0.079987,0.237301 0.160995,0.3559c0.080002,0.118599 0.160995,0.197701 0.240997,0.237301c0.041,0.039497 0.201996,0.079098 0.322006,0.079098z"/>
   <path id="svg_29" fill="#e7ebec" d="m159.734467,30.92576l-1.088013,0l0,2.807798l-0.68399,0l0,-2.807798l-1.087006,0l0,-0.593199l2.899002,0l0,0.593199l-0.039993,0z"/>
   <path id="svg_30" fill="#e7ebec" d="m163.317459,33.179958c0.160995,0 0.281998,-0.0396 0.403,-0.079098c0.121002,-0.0396 0.201004,-0.158203 0.281998,-0.237301c0.080002,-0.118599 0.121002,-0.237301 0.160995,-0.3559c0.040009,-0.118702 0.040009,-0.276798 0.040009,-0.3955l0,-1.739998l0.684998,0l0,1.739998c0,0.237301 -0.039993,0.434998 -0.080994,0.672298c-0.040009,0.197701 -0.161011,0.3955 -0.282013,0.5536c-0.119995,0.158199 -0.280991,0.276901 -0.482986,0.355999c-0.201004,0.079102 -0.402008,0.118603 -0.684006,0.118603c-0.281998,0 -0.524002,-0.039501 -0.684998,-0.158199c-0.201004,-0.079102 -0.362,-0.237301 -0.483002,-0.355904c-0.121002,-0.158199 -0.201004,-0.316399 -0.242004,-0.553596c-0.039993,-0.197803 -0.080002,-0.435101 -0.080002,-0.632801l0,-1.739998l0.684006,0l0,1.739998c0,0.158199 0,0.276798 0.041,0.3955c0.039993,0.118599 0.080002,0.237301 0.160995,0.3559c0.080002,0.118599 0.161011,0.197701 0.240997,0.237301c0.041,0.039497 0.161011,0.079098 0.322006,0.079098z"/>
   <path id="svg_31" fill="#e7ebec" d="m167.223465,33.733559l0,-3.400997l1.529999,0c0.160995,0 0.322998,0.0396 0.442993,0.0791c0.121002,0.0791 0.242004,0.158199 0.363007,0.276899c0.121002,0.118601 0.160995,0.2372 0.240997,0.3559c0.041,0.118601 0.080994,0.2768 0.080994,0.395401c0,0.237299 -0.039993,0.434999 -0.160995,0.593197c-0.121002,0.197701 -0.281998,0.316402 -0.442993,0.3955l0.804993,1.2654l-0.764999,0l-0.725006,-1.146801l-0.643997,0l0,1.146801l-0.724991,0l0,0.0396zm0.644989,-1.7005l0.845001,0c0.081009,0 0.121002,0 0.161011,-0.039497c0.039993,-0.0396 0.080994,-0.0791 0.120987,-0.1187c0.040009,-0.039499 0.081009,-0.118599 0.081009,-0.158199c0.039993,-0.079 0.039993,-0.1581 0.039993,-0.197701c0,-0.0791 0,-0.158199 -0.039993,-0.237301c-0.041,-0.0791 -0.081009,-0.118599 -0.121002,-0.158098c-0.041,-0.0396 -0.080994,-0.079102 -0.160995,-0.1187c-0.041,-0.039501 -0.121002,-0.039501 -0.161011,-0.039501l-0.806,0l0,1.067698l0.041,0z"/>
   <path id="svg_32" fill="#e7ebec" d="m173.626465,33.77306c-0.242004,0 -0.484009,-0.039501 -0.685013,-0.158199c-0.200989,-0.118603 -0.403,-0.237202 -0.522995,-0.395401c-0.160995,-0.158199 -0.281998,-0.3559 -0.362991,-0.553699c-0.080002,-0.197701 -0.121002,-0.435001 -0.121002,-0.632702c0,-0.237297 0.041,-0.434998 0.121002,-0.632698c0.080994,-0.1978 0.201996,-0.395498 0.362991,-0.553699c0.160995,-0.158199 0.322006,-0.2768 0.522995,-0.395399c0.201004,-0.0791 0.443008,-0.158201 0.685013,-0.158201c0.240997,0 0.483002,0.039501 0.68399,0.158201c0.202011,0.118599 0.403,0.2372 0.524002,0.395399c0.160995,0.158201 0.240997,0.3559 0.322006,0.553699c0.080002,0.197701 0.121002,0.435001 0.121002,0.632698c0,0.237301 -0.041,0.435001 -0.121002,0.632702c-0.081009,0.1978 -0.202011,0.3955 -0.363007,0.553699c-0.160995,0.158199 -0.321991,0.276798 -0.522995,0.395401c-0.160995,0.079098 -0.403,0.158199 -0.643997,0.158199zm-1.007004,-1.740002c0,0.158203 0.039993,0.276802 0.080994,0.435001c0.040009,0.158199 0.12001,0.276798 0.201004,0.3559c0.080002,0.079102 0.201004,0.1978 0.322006,0.237301c0.120987,0.0396 0.281998,0.079098 0.442993,0.079098c0.160995,0 0.322006,-0.039497 0.443008,-0.079098c0.120987,-0.079102 0.240997,-0.158199 0.321991,-0.276802c0.081009,-0.118698 0.160995,-0.237301 0.201004,-0.3559c0.041,-0.118698 0.080994,-0.276897 0.080994,-0.3955c0,-0.158197 -0.039993,-0.276796 -0.080994,-0.434998c-0.040009,-0.118599 -0.119995,-0.2768 -0.201004,-0.3559c-0.080994,-0.1187 -0.201004,-0.197701 -0.321991,-0.237299c-0.121002,-0.079102 -0.282013,-0.079102 -0.403,-0.079102c-0.161011,0 -0.322006,0.0396 -0.443008,0.079102c-0.121002,0.0791 -0.240997,0.158199 -0.322006,0.276798c-0.079987,0.1187 -0.160995,0.237301 -0.200989,0.355902c-0.081009,0.1187 -0.121002,0.237299 -0.121002,0.395496z"/>
   <path id="svg_33" fill="#e7ebec" d="m75.69706,15.74076c0,2.372701 -0.845604,4.389602 -2.577103,6.090001c-1.6912,1.660999 -3.785095,2.531 -6.201096,2.531c-2.416,0 -4.469601,-0.8305 -6.201103,-2.531c-1.6912,-1.6609 -2.577099,-3.7173 -2.577099,-6.090001c0,-2.3728 0.8456,-4.3896 2.577099,-6.09011c1.651001,-1.62138 3.664299,-2.491389 5.999802,-2.491389l0,2.095929c-1.771797,0.03955 -3.2616,0.67228 -4.509899,1.89817c-1.288502,1.2655 -1.9328,2.807799 -1.9328,4.6269c0,1.7796 0.644299,3.321901 1.9328,4.587301c1.288498,1.265499 2.858898,1.8983 4.711201,1.8983c1.852295,0 3.382401,-0.632801 4.670998,-1.8983c1.288498,-1.2654 1.9328,-2.807701 1.9328,-4.587301c0,-1.2259 -0.322098,-2.3332 -0.926102,-3.3218l1.892502,-1.0678c0.845596,1.304999 1.208,2.7287 1.208,4.3501z"/>
  </g>
 </g>
</svg>