<?xml version="1.0" encoding="UTF-8"?> <svg xmlns="http://www.w3.org/2000/svg" width="175" height="34" viewBox="0 0 175 34" fill="none"><g clip-path="url(#clip0)"><path d="M67.8901 2.45166L77.2321 7.75082L67.8901 13.0104V2.45166Z" fill="#8090B4"></path><path d="M22.8313 0C23.1132 0 23.3548 0.0790919 23.5562 0.276822C23.7575 0.474551 23.8783 0.711827 23.8783 1.02819V23.0157C23.8783 23.2926 23.7575 23.5298 23.5562 23.7276C23.3548 23.9253 23.1132 24.0439 22.8313 24.0439H22.7911C22.5092 24.0439 22.2676 23.9253 22.0663 23.7276C21.8649 23.5298 21.7441 23.2926 21.7441 23.0157V1.02819C21.7441 0.751373 21.8649 0.514097 22.0663 0.276822C22.2676 0.0790919 22.5092 0 22.7911 0H22.8313Z" fill="#8090B4"></path><path d="M14.939 9.3327C16.6302 10.9936 17.5161 13.05 17.5161 15.4228V22.9761C17.5161 23.2529 17.3953 23.4902 17.194 23.6879C16.9926 23.8856 16.751 24.0043 16.4692 24.0043H16.4289C16.147 24.0043 15.9054 23.8856 15.7041 23.6879C15.5028 23.4902 15.382 23.2529 15.382 22.9761V21.0779C13.1673 23.0156 10.9526 23.9647 8.73792 23.9647C6.32191 23.9647 4.26829 23.1342 2.53682 21.4338C0.845605 19.8124 0 17.7955 0 15.4228C0 13.05 0.845605 11.0332 2.57708 9.3327C4.26829 7.67177 6.36217 6.80176 8.77819 6.80176C11.1539 6.8413 13.2075 7.67177 14.939 9.3327ZM4.06696 10.8354C2.77842 12.1009 2.13415 13.6432 2.13415 15.4228C2.13415 17.2023 2.77842 18.7446 4.06696 20.0497C5.3555 21.3151 6.92591 21.9479 8.77819 21.9479C10.5902 21.9479 12.1606 21.3151 13.4492 20.0497C14.7377 18.7842 15.382 17.2419 15.382 15.4228C15.382 13.6432 14.7377 12.1009 13.4492 10.8354C12.1606 9.56998 10.6305 8.93724 8.77819 8.93724C6.92591 8.89769 5.3555 9.53043 4.06696 10.8354Z" fill="#8090B4"></path><path d="M88.8288 0C89.1106 0 89.3522 0.0790919 89.5938 0.276822C89.7952 0.474551 89.8757 0.711827 89.8757 1.02819V1.06774C89.8757 1.34456 89.7952 1.58184 89.5938 1.81911C89.3925 2.01684 89.1509 2.09594 88.8288 2.09594H87.8624C86.6544 2.09594 85.6477 2.53094 84.8021 3.36141C83.9565 4.19187 83.5538 5.18052 83.5135 6.3669V6.881H88.8288C89.1106 6.881 89.3522 6.99964 89.5938 7.19736C89.7952 7.39509 89.8757 7.63237 89.8757 7.90919V7.94874C89.8757 8.22556 89.7952 8.46284 89.5938 8.70011C89.3925 8.89784 89.1509 9.01648 88.8288 9.01648H83.5135V23.0948C83.5135 23.3717 83.3927 23.6089 83.1914 23.8067C82.9901 24.0044 82.7485 24.123 82.4666 24.123H82.4263C82.1445 24.123 81.9029 24.0044 81.7015 23.8067C81.5002 23.6089 81.3794 23.3717 81.3794 23.0948V6.32735C81.4197 4.54779 82.0237 3.08458 83.2719 1.85866C84.5605 0.632735 86.0504 0 87.8624 0H88.8288Z" fill="#8090B4"></path><path d="M95.3117 2.64957C94.909 2.64957 94.5869 2.53094 94.3453 2.25411C94.1037 2.01684 93.9426 1.70047 93.9426 1.30501C93.9426 0.949098 94.0634 0.632731 94.3453 0.355909C94.5869 0.118633 94.909 -0.0395508 95.3117 -0.0395508C95.6741 -0.0395508 95.9962 0.0790871 96.2781 0.355909C96.56 0.632731 96.6808 0.949098 96.6808 1.30501C96.6808 1.66093 96.56 1.97729 96.2781 2.25411C95.9962 2.53094 95.7144 2.64957 95.3117 2.64957ZM95.352 6.84145C95.6338 6.84145 95.8754 6.96008 96.0768 7.15781C96.2781 7.35554 96.3989 7.59282 96.3989 7.90919V23.0553C96.3989 23.3321 96.2781 23.5694 96.0768 23.7671C95.8754 23.9648 95.6338 24.0835 95.352 24.0835H95.3117C95.0298 24.0835 94.7882 23.9648 94.5869 23.7671C94.3856 23.5694 94.2648 23.3321 94.2648 23.0553V7.86964C94.2648 7.59282 94.3856 7.35554 94.5869 7.11827C94.748 6.92054 95.0298 6.84145 95.352 6.84145Z" fill="#8090B4"></path><path d="M115.566 9.33269C117.257 10.9936 118.143 13.05 118.143 15.4228V22.976C118.143 23.2529 118.022 23.4901 117.821 23.6879C117.62 23.8856 117.378 24.0042 117.096 24.0042H117.056C116.774 24.0042 116.532 23.8856 116.331 23.6879C116.13 23.4901 116.009 23.2529 116.009 22.976V21.0778C113.794 23.0156 111.58 23.9647 109.365 23.9647C106.949 23.9647 104.895 23.1342 103.164 21.4338C101.473 19.7728 100.587 17.7164 100.587 15.3437C100.587 12.9709 101.432 10.9541 103.164 9.2536C104.855 7.59267 106.949 6.72266 109.365 6.72266C111.781 6.84129 113.875 7.67176 115.566 9.33269ZM104.694 10.8354C103.405 12.1009 102.761 13.6432 102.761 15.4228C102.761 17.2023 103.405 18.7446 104.694 20.0496C105.982 21.3151 107.553 21.9479 109.405 21.9479C111.217 21.9479 112.788 21.3151 114.076 20.0496C115.365 18.7842 116.009 17.2419 116.009 15.4228C116.009 13.6432 115.365 12.1009 114.076 10.8354C112.788 9.56997 111.257 8.93723 109.405 8.93723C107.553 8.89768 105.982 9.53042 104.694 10.8354Z" fill="#8090B4"></path><path d="M124.505 22.9766C124.505 23.2534 124.384 23.4907 124.183 23.6884C123.982 23.8861 123.74 24.0047 123.458 24.0047H123.418C123.136 24.0047 122.895 23.8861 122.693 23.6884C122.492 23.4907 122.371 23.2534 122.371 22.9766V13.881C122.371 11.9432 123.056 10.2823 124.465 8.89819C125.874 7.51408 127.566 6.8418 129.539 6.8418C131.512 6.8418 133.203 7.51408 134.612 8.89819C136.022 10.2823 136.706 11.9432 136.706 13.881V22.9766C136.706 23.2534 136.585 23.4907 136.384 23.6884C136.183 23.8861 135.941 24.0047 135.659 24.0047H135.619C135.337 24.0047 135.095 23.8861 134.854 23.6884C134.652 23.4907 134.532 23.2534 134.532 22.9766V13.881C134.532 12.4969 134.048 11.35 133.042 10.3614C132.035 9.37274 130.867 8.89819 129.458 8.89819C128.049 8.89819 126.881 9.37274 125.874 10.3614C124.908 11.35 124.384 12.4969 124.384 13.881V22.9766H124.505Z" fill="#8090B4"></path><path d="M152.37 7.23675C152.853 7.39494 153.095 7.71131 153.095 8.18586V8.30449C153.095 8.66041 152.974 8.93723 152.692 9.13496C152.41 9.33269 152.088 9.41178 151.766 9.29314C151.122 9.05587 150.437 8.97678 149.753 8.97678C147.941 8.97678 146.37 9.60951 145.041 10.875C143.753 12.1405 143.108 13.6827 143.108 15.5019C143.108 17.2814 143.753 18.8237 145.041 20.0892C146.33 21.3547 147.9 21.9874 149.753 21.9874C150.437 21.9874 151.122 21.8688 151.766 21.671C152.088 21.5524 152.41 21.5919 152.692 21.7897C152.974 21.9874 153.095 22.2642 153.095 22.6201C153.095 23.0947 152.853 23.4111 152.37 23.5692C151.524 23.8461 150.638 23.9647 149.712 23.9647C147.296 23.9647 145.243 23.1342 143.511 21.4338C141.82 19.7728 140.934 17.7164 140.934 15.3437C140.934 12.9709 141.78 10.9541 143.511 9.2536C145.202 7.59267 147.296 6.72266 149.712 6.72266C150.638 6.84129 151.524 6.95993 152.37 7.23675Z" fill="#8090B4"></path><path d="M166.101 6.8418C168.517 6.8418 170.571 7.67226 172.302 9.37274C173.993 11.0337 174.879 13.0901 174.879 15.4628C174.879 17.8356 174.034 19.8524 172.302 21.5529C170.611 23.2138 168.517 24.0838 166.101 24.0838C163.685 24.0838 161.632 23.2534 159.9 21.5529C158.209 19.892 157.323 17.8356 157.323 15.4628C157.323 13.0901 158.169 11.0732 159.9 9.37274C161.632 7.67226 163.685 6.8418 166.101 6.8418ZM166.101 8.93773C164.289 8.93773 162.719 9.57047 161.39 10.8359C160.101 12.1014 159.457 13.6437 159.457 15.4628C159.457 17.2424 160.101 18.7847 161.39 20.0501C162.678 21.3156 164.249 21.9484 166.101 21.9484C167.953 21.9484 169.484 21.3156 170.772 20.0501C172.061 18.7847 172.705 17.2424 172.705 15.4628C172.705 13.6832 172.061 12.141 170.772 10.8359C169.524 9.57047 167.953 8.93773 166.101 8.93773Z" fill="#8090B4"></path><path d="M29.1934 0C29.4753 0 29.7169 0.0790919 29.9182 0.276822C30.1196 0.474551 30.2404 0.711827 30.2404 1.02819V6.84145H33.7839C34.0657 6.84145 34.3073 6.96009 34.5087 7.15782C34.71 7.35555 34.8308 7.59282 34.8308 7.90919V7.94874C34.8308 8.22556 34.71 8.46283 34.5087 8.66056C34.3073 8.85829 34.0657 8.97693 33.7839 8.97693H30.2404V19.773C30.2404 20.3662 30.4417 20.8803 30.8846 21.2757C31.3276 21.7107 31.851 21.9085 32.455 21.9085H33.8241C34.106 21.9085 34.3476 22.0271 34.5489 22.2248C34.7503 22.4226 34.8711 22.6598 34.8711 22.9762V23.0157C34.8711 23.2926 34.7503 23.5298 34.5489 23.7276C34.3476 23.9253 34.106 24.0439 33.8241 24.0439H32.455C31.247 24.0439 30.2404 23.6485 29.3948 22.818C28.5492 21.9876 28.1465 20.9989 28.1465 19.8125V1.02819C28.1465 0.751373 28.2673 0.514097 28.4686 0.276822C28.6297 0.0790919 28.8713 0 29.1532 0H29.1934Z" fill="#8090B4"></path><path d="M41.193 16.9651C41.193 18.3492 41.6762 19.496 42.6829 20.4847C43.6895 21.4338 44.8573 21.9479 46.2666 21.9479C47.676 21.9479 48.8437 21.4733 49.8504 20.4847C50.8168 19.496 51.3402 18.3492 51.3402 16.9651V7.8695C51.3402 7.59268 51.461 7.3554 51.6624 7.11813C51.8637 6.9204 52.1053 6.80176 52.4274 6.80176H52.4677C52.7496 6.80176 52.9912 6.9204 53.1925 7.11813C53.3939 7.31586 53.5147 7.55313 53.5147 7.8695V16.9651C53.5147 18.9028 52.8301 20.5638 51.4208 21.9479C50.0114 23.332 48.3202 24.0043 46.3471 24.0043C44.3741 24.0043 42.6829 23.332 41.2735 21.9479C39.7836 20.5638 39.0588 18.9028 39.0588 16.9651V7.8695C39.0588 7.59268 39.1796 7.3554 39.381 7.11813C39.5823 6.9204 39.8239 6.80176 40.1058 6.80176H40.146C40.4279 6.80176 40.6695 6.9204 40.8708 7.11813C41.0722 7.31586 41.193 7.55313 41.193 7.8695V16.9651Z" fill="#8090B4"></path><path d="M83.4732 30.9247C83.4329 30.8851 83.3927 30.8851 83.3524 30.8456C83.3121 30.8061 83.2316 30.7665 83.1511 30.727C83.0705 30.6874 82.99 30.6479 82.8692 30.6479C82.7484 30.6083 82.6679 30.6083 82.5471 30.6083C82.3457 30.6083 82.2249 30.6479 82.1444 30.727C82.0639 30.806 82.0236 30.8851 82.0236 31.0038C82.0236 31.0829 82.0236 31.1224 82.0639 31.162C82.1041 31.2015 82.1444 31.2411 82.2249 31.2806C82.3055 31.3201 82.386 31.3597 82.4665 31.3597C82.5471 31.3992 82.6679 31.3992 82.8289 31.4388C82.99 31.4783 83.1511 31.5179 83.2719 31.597C83.3927 31.6761 83.5135 31.7156 83.6343 31.7947C83.7148 31.8738 83.7953 31.9529 83.8759 32.0715C83.9564 32.1902 83.9564 32.3088 83.9564 32.467C83.9564 32.6647 83.9161 32.8229 83.8356 32.9415C83.7551 33.0602 83.6745 33.1788 83.5537 33.2579C83.4329 33.337 83.3121 33.3765 83.1511 33.4161C82.99 33.4556 82.8289 33.4556 82.6679 33.4556C82.4263 33.4556 82.1444 33.4161 81.9028 33.337C81.6612 33.2579 81.4196 33.1393 81.2183 33.0206L81.5001 32.467C81.5404 32.5065 81.5807 32.5461 81.6612 32.5856C81.7417 32.6252 81.8223 32.6647 81.9431 32.7438C82.0639 32.7834 82.1444 32.8229 82.3055 32.8624C82.4263 32.902 82.5471 32.902 82.7081 32.902C83.0705 32.902 83.2719 32.7834 83.2719 32.5461C83.2719 32.467 83.2316 32.4274 83.1913 32.3483C83.1511 32.2693 83.0705 32.2693 83.0303 32.2297C82.99 32.1902 82.8692 32.1506 82.7484 32.1111C82.6276 32.0715 82.5068 32.032 82.386 31.9924C82.2249 31.9529 82.0639 31.9133 81.9431 31.8342C81.8223 31.7947 81.7015 31.7156 81.6209 31.6365C81.5404 31.5574 81.4599 31.4783 81.4196 31.3992C81.3793 31.3201 81.3391 31.2015 81.3391 31.0433C81.3391 30.8851 81.3793 30.727 81.4196 30.5688C81.4599 30.4106 81.5807 30.3315 81.7015 30.2524C81.8223 30.1733 81.9431 30.0942 82.1041 30.0547C82.2652 30.0151 82.4263 29.9756 82.5873 29.9756C82.8289 29.9756 83.0705 30.0151 83.2719 30.0942C83.4732 30.1733 83.6745 30.2524 83.7953 30.371L83.4732 30.9247Z" fill="#8090B4"></path><path d="M88.5066 32.8229V33.4161H86.0906V30.0151H88.4663V30.6083H86.7751V31.4388H88.2247V31.9924H86.7751V32.8229H88.5066Z" fill="#8090B4"></path><path d="M93.5399 33.4161V31.162L92.654 32.8229H92.2916L91.4057 31.162V33.4161H90.7212V30.0151H91.446L92.4527 31.9529L93.4996 30.0151H94.2244V33.4161H93.5399Z" fill="#8090B4"></path><path d="M96.6404 33.4161V30.0151H98.09C98.251 30.0151 98.4121 30.0547 98.5329 30.0942C98.6537 30.1733 98.7745 30.2524 98.8953 30.3711C99.0161 30.4897 99.0564 30.6083 99.1369 30.727C99.1772 30.8456 99.2174 31.0038 99.2174 31.1224C99.2174 31.2806 99.1772 31.3992 99.1369 31.5574C99.0966 31.6761 99.0161 31.7947 98.9356 31.9133C98.855 32.032 98.7342 32.1111 98.6134 32.1506C98.4926 32.2297 98.3316 32.2297 98.1705 32.2297H97.3652V33.3765H96.6404V33.4161ZM97.3249 31.7156H98.09C98.2108 31.7156 98.3316 31.6761 98.4121 31.5574C98.4926 31.4388 98.5329 31.3202 98.5329 31.162C98.5329 31.0829 98.5329 31.0038 98.4926 30.9247C98.4524 30.8456 98.4524 30.8061 98.3718 30.7665C98.3316 30.727 98.2913 30.6874 98.2108 30.6479C98.1705 30.6083 98.09 30.6083 98.0497 30.6083H97.2846V31.7156H97.3249Z" fill="#8090B4"></path><path d="M101.392 33.4161V30.0151H102.076V32.8229H103.848V33.4161H101.392Z" fill="#8090B4"></path><path d="M105.942 33.4161V30.0151H106.627V33.4161H105.942Z" fill="#8090B4"></path><path d="M108.841 31.6761C108.841 31.4783 108.882 31.2806 108.962 31.0433C109.043 30.8456 109.163 30.6479 109.284 30.4897C109.445 30.3315 109.606 30.2129 109.808 30.0942C110.009 29.9756 110.251 29.936 110.533 29.936C110.855 29.936 111.137 30.0151 111.378 30.1338C111.62 30.2524 111.781 30.4501 111.902 30.6874L111.378 31.0433C111.338 30.9642 111.257 30.8851 111.217 30.806C111.177 30.727 111.096 30.6874 111.016 30.6479C110.935 30.6083 110.855 30.5688 110.774 30.5688C110.694 30.5688 110.613 30.5292 110.533 30.5292C110.371 30.5292 110.21 30.5688 110.09 30.6479C109.969 30.727 109.848 30.806 109.767 30.9247C109.687 31.0433 109.606 31.162 109.566 31.2806C109.526 31.3992 109.486 31.5574 109.486 31.6761C109.486 31.8342 109.526 31.9529 109.566 32.1111C109.606 32.2692 109.687 32.3879 109.767 32.467C109.848 32.5856 109.969 32.6647 110.09 32.7043C110.21 32.7833 110.371 32.7833 110.492 32.7833C110.573 32.7833 110.653 32.7833 110.734 32.7438C110.814 32.7438 110.895 32.7043 110.975 32.6647C111.056 32.6252 111.137 32.5856 111.177 32.5065C111.257 32.4274 111.298 32.3483 111.338 32.2692L111.902 32.5856C111.861 32.7043 111.781 32.8229 111.66 32.9415C111.539 33.0206 111.459 33.1393 111.298 33.1788C111.177 33.2579 111.016 33.2974 110.895 33.337C110.774 33.3765 110.613 33.3765 110.452 33.3765C110.21 33.3765 109.969 33.337 109.767 33.2184C109.566 33.0997 109.405 32.9811 109.244 32.8229C109.083 32.6647 108.962 32.467 108.882 32.2692C108.882 32.1111 108.841 31.9133 108.841 31.6761Z" fill="#8090B4"></path><path d="M116.492 32.8229V33.4161H114.076V30.0151H116.452V30.6083H114.761V31.4388H116.21V31.9924H114.761V32.8229H116.492Z" fill="#8090B4"></path><path d="M121.566 33.4161V31.162L120.68 32.8229H120.317L119.432 31.162V33.4161H118.747V30.0151H119.472L120.479 31.9529L121.525 30.0151H122.25V33.4161H121.566Z" fill="#8090B4"></path><path d="M127.042 32.8229V33.4161H124.626V30.0151H127.002V30.6083H125.311V31.4388H126.76V31.9924H125.311V32.8229H127.042Z" fill="#8090B4"></path><path d="M129.941 31.2411V33.4161H129.257V30.0151H129.78L131.592 32.2297V30.0151H132.277V33.4161H131.713L129.941 31.2411Z" fill="#8090B4"></path><path d="M137.31 30.6083H136.223V33.4161H135.538V30.6083H134.451V30.0151H137.35V30.6083H137.31Z" fill="#8090B4"></path><path d="M141.82 32.8229V33.4161H139.404V30.0151H141.78V30.6083H140.089V31.4388H141.538V31.9924H140.089V32.8229H141.82Z" fill="#8090B4"></path><path d="M146.934 33.4161V30.0151H149.269V30.6083H147.618V31.4783H148.987V32.032H147.618V33.4556H146.934V33.4161Z" fill="#8090B4"></path><path d="M152.893 32.8625C153.055 32.8625 153.175 32.8229 153.296 32.7834C153.417 32.7438 153.497 32.6252 153.578 32.5461C153.659 32.4275 153.699 32.3088 153.739 32.1902C153.779 32.0715 153.779 31.9134 153.779 31.7947V30.0547H154.464V31.7947C154.464 32.032 154.424 32.2297 154.383 32.467C154.343 32.6647 154.222 32.8625 154.101 33.0206C153.981 33.1788 153.82 33.2975 153.618 33.3766C153.417 33.4557 153.216 33.4952 152.934 33.4952C152.652 33.4952 152.41 33.4557 152.249 33.337C152.048 33.2579 151.887 33.0997 151.766 32.9811C151.645 32.8229 151.565 32.6647 151.524 32.4275C151.484 32.2297 151.444 31.9924 151.444 31.7947V30.0547H152.128V31.7947C152.128 31.9529 152.128 32.0715 152.169 32.1902C152.209 32.3088 152.249 32.4275 152.33 32.5461C152.41 32.6647 152.491 32.7438 152.571 32.7834C152.612 32.8229 152.773 32.8625 152.893 32.8625Z" fill="#8090B4"></path><path d="M159.417 30.6083H158.329V33.4161H157.645V30.6083H156.558V30.0151H159.457V30.6083H159.417Z" fill="#8090B4"></path><path d="M163 32.8625C163.161 32.8625 163.282 32.8229 163.403 32.7834C163.524 32.7438 163.604 32.6252 163.685 32.5461C163.765 32.4275 163.806 32.3088 163.846 32.1902C163.886 32.0715 163.886 31.9134 163.886 31.7947V30.0547H164.571V31.7947C164.571 32.032 164.531 32.2297 164.49 32.467C164.45 32.6647 164.329 32.8625 164.208 33.0206C164.088 33.1788 163.927 33.2975 163.725 33.3766C163.524 33.4557 163.323 33.4952 163.041 33.4952C162.759 33.4952 162.517 33.4557 162.356 33.337C162.155 33.2579 161.994 33.0997 161.873 32.9811C161.752 32.8229 161.672 32.6647 161.631 32.4275C161.591 32.2297 161.551 31.9924 161.551 31.7947V30.0547H162.235V31.7947C162.235 31.9529 162.235 32.0715 162.276 32.1902C162.316 32.3088 162.356 32.4275 162.437 32.5461C162.517 32.6647 162.598 32.7438 162.678 32.7834C162.719 32.8229 162.839 32.8625 163 32.8625Z" fill="#8090B4"></path><path d="M166.906 33.4161V30.0151H168.436C168.597 30.0151 168.759 30.0547 168.879 30.0942C169 30.1733 169.121 30.2524 169.242 30.3711C169.363 30.4897 169.403 30.6083 169.483 30.727C169.524 30.8456 169.564 31.0038 169.564 31.1224C169.564 31.3597 169.524 31.5574 169.403 31.7156C169.282 31.9133 169.121 32.032 168.96 32.1111L169.765 33.3765H169L168.275 32.2297H167.631V33.3765H166.906V33.4161ZM167.551 31.7156H168.396C168.477 31.7156 168.517 31.7156 168.557 31.6761C168.597 31.6365 168.638 31.597 168.678 31.5574C168.718 31.5179 168.759 31.4388 168.759 31.3992C168.799 31.3202 168.799 31.2411 168.799 31.2015C168.799 31.1224 168.799 31.0433 168.759 30.9642C168.718 30.8851 168.678 30.8456 168.638 30.8061C168.597 30.7665 168.557 30.727 168.477 30.6874C168.436 30.6479 168.356 30.6479 168.316 30.6479H167.51V31.7156H167.551Z" fill="#8090B4"></path><path d="M173.309 33.4556C173.067 33.4556 172.825 33.4161 172.624 33.2974C172.423 33.1788 172.221 33.0602 172.101 32.902C171.94 32.7438 171.819 32.5461 171.738 32.3483C171.658 32.1506 171.617 31.9133 171.617 31.7156C171.617 31.4783 171.658 31.2806 171.738 31.0829C171.819 30.8851 171.94 30.6874 172.101 30.5292C172.262 30.371 172.423 30.2524 172.624 30.1338C172.825 30.0547 173.067 29.9756 173.309 29.9756C173.55 29.9756 173.792 30.0151 173.993 30.1338C174.195 30.2524 174.396 30.371 174.517 30.5292C174.678 30.6874 174.758 30.8851 174.839 31.0829C174.919 31.2806 174.96 31.5179 174.96 31.7156C174.96 31.9529 174.919 32.1506 174.839 32.3483C174.758 32.5461 174.637 32.7438 174.476 32.902C174.315 33.0602 174.154 33.1788 173.953 33.2974C173.792 33.3765 173.55 33.4556 173.309 33.4556ZM172.302 31.7156C172.302 31.8738 172.342 31.9924 172.383 32.1506C172.423 32.3088 172.503 32.4274 172.584 32.5065C172.664 32.5856 172.785 32.7043 172.906 32.7438C173.027 32.7834 173.188 32.8229 173.349 32.8229C173.51 32.8229 173.671 32.7834 173.792 32.7438C173.913 32.6647 174.033 32.5856 174.114 32.467C174.195 32.3483 174.275 32.2297 174.315 32.1111C174.356 31.9924 174.396 31.8342 174.396 31.7156C174.396 31.5574 174.356 31.4388 174.315 31.2806C174.275 31.162 174.195 31.0038 174.114 30.9247C174.033 30.806 173.913 30.727 173.792 30.6874C173.671 30.6083 173.51 30.6083 173.389 30.6083C173.228 30.6083 173.067 30.6479 172.946 30.6874C172.825 30.7665 172.705 30.8456 172.624 30.9642C172.544 31.0829 172.463 31.2015 172.423 31.3201C172.342 31.4388 172.302 31.5574 172.302 31.7156Z" fill="#8090B4"></path><path d="M75.3796 15.4233C75.3796 17.796 74.534 19.8129 72.8025 21.5133C71.1113 23.1743 69.0174 24.0443 66.6014 24.0443C64.1854 24.0443 62.1318 23.2138 60.4003 21.5133C58.7091 19.8524 57.8232 17.796 57.8232 15.4233C57.8232 13.0505 58.6688 11.0337 60.4003 9.33319C62.0513 7.71181 64.0646 6.8418 66.4001 6.8418V8.93773C64.6283 8.97728 63.1385 9.61001 61.8902 10.8359C60.6017 12.1014 59.9574 13.6437 59.9574 15.4628C59.9574 17.2424 60.6017 18.7847 61.8902 20.0501C63.1787 21.3156 64.7491 21.9484 66.6014 21.9484C68.4537 21.9484 69.9838 21.3156 71.2724 20.0501C72.5609 18.7847 73.2052 17.2424 73.2052 15.4628C73.2052 14.2369 72.8831 13.1296 72.2791 12.141L74.1716 11.0732C75.0172 12.3782 75.3796 13.8019 75.3796 15.4233Z" fill="#8090B4"></path></g><defs><clipPath id="clip0"><rect width="175" height="33.4559" fill="white"></rect></clipPath></defs></svg> 