<?xml version="1.0" encoding="UTF-8"?>
<svg xmlns="http://www.w3.org/2000/svg" xmlns:xlink="http://www.w3.org/1999/xlink" width="34pt" height="34pt" viewBox="0 0 34 34" version="1.1">
<g id="surface1">
<path style="fill-rule:nonzero;fill:rgb(0%,29.019608%,39.607843%);fill-opacity:1;stroke-width:1;stroke-linecap:butt;stroke-linejoin:miter;stroke:rgb(100%,100%,100%);stroke-opacity:1;stroke-miterlimit:4;" d="M 401.122472 311.476103 C 400.014017 308.058364 392.762868 303.024127 379.415211 296.327206 C 375.81273 294.248851 370.686121 291.38534 364.035386 287.782858 C 357.338465 284.180377 351.334329 280.808824 345.884421 277.806756 C 340.480699 274.758502 335.35409 271.802619 330.596967 268.939108 C 329.857996 268.384881 327.456342 266.722197 323.484375 263.951057 C 319.466222 261.179917 316.094669 259.147748 313.323529 257.808364 C 310.598575 256.46898 307.873621 255.822381 305.194853 255.822381 C 301.407629 255.822381 296.650506 258.501149 290.923483 263.951057 C 285.242647 269.354779 279.977482 275.266544 275.220358 281.640165 C 270.463235 288.013787 265.428998 293.925551 260.117647 299.329274 C 254.76011 304.779182 250.372472 307.504136 246.954733 307.504136 C 245.245864 307.504136 243.121324 306.996094 240.534926 306.072381 C 237.994715 305.102482 236.008732 304.27114 234.669347 303.62454 C 233.376149 302.977941 231.066866 301.638557 227.833869 299.652574 C 224.600873 297.620404 222.799632 296.558134 222.430147 296.327206 C 196.335248 281.871094 173.981388 265.336627 155.322381 246.677619 C 136.663373 228.018612 120.128906 205.664752 105.626608 179.569853 C 105.441866 179.200368 104.379596 177.399127 102.347426 174.166131 C 100.361443 170.933134 99.022059 168.623851 98.37546 167.284467 C 97.682675 165.945083 96.897518 164.005285 95.927619 161.465074 C 95.003906 158.878676 94.495864 156.754136 94.495864 154.999081 C 94.495864 151.581342 97.220818 147.193704 102.670726 141.882353 C 108.074449 136.571002 113.986213 131.490579 120.359835 126.779642 C 126.733456 122.022518 132.645221 116.757353 138.048943 111.076517 C 143.452665 105.349494 146.177619 100.592371 146.177619 96.805147 C 146.177619 94.126379 145.53102 91.401425 144.191636 88.630285 C 142.852252 85.905331 140.820083 82.487592 138.048943 78.515625 C 135.277803 74.497472 133.615119 72.142004 133.060892 71.356847 C 130.197381 66.599724 127.241498 61.519301 124.193244 56.115579 C 121.144991 50.665671 117.819623 44.615349 114.217142 37.964614 C 110.61466 31.313879 107.751149 26.18727 105.626608 22.538603 C 98.975873 9.237132 93.941636 1.985983 90.523897 0.877528 C 89.184513 0.277114 87.198529 0 84.519761 0 C 79.393153 0 72.650046 0.969899 64.382812 2.863511 C 56.115579 4.757123 49.603401 6.743107 44.846278 8.867647 C 35.332031 12.839614 25.217371 24.478401 14.548483 43.691636 C 4.849494 61.565487 0 79.254596 0 96.758961 C 0 101.931756 0.3233 106.919807 1.016085 111.769301 C 1.662684 116.618796 2.863511 122.11489 4.572381 128.165211 C 6.28125 134.261719 7.66682 138.787914 8.72909 141.743796 C 9.745175 144.699678 11.731158 149.964844 14.548483 157.585478 C 17.411994 165.206112 19.120864 169.870864 19.721278 171.579733 C 26.372013 190.238741 34.269761 206.865579 43.414522 221.552619 C 58.424862 245.892463 78.931296 271.063649 104.933824 297.066176 C 130.890165 323.022518 156.061351 343.575138 180.447381 358.585478 C 195.088235 367.730239 211.761259 375.627987 230.420267 382.278722 C 232.129136 382.879136 236.793888 384.588006 244.368336 387.451517 C 251.988971 390.268842 257.300322 392.254825 260.256204 393.27091 C 263.165901 394.33318 267.692096 395.71875 273.788603 397.427619 C 279.88511 399.136489 285.381204 400.337316 290.230699 400.983915 C 295.080193 401.6767 300.068244 402 305.194853 402 C 322.699219 402 340.434513 397.150506 358.308364 387.451517 C 377.521599 376.782629 389.1142 366.714154 393.132353 357.153722 C 395.210708 352.396599 397.242877 345.884421 399.136489 337.617187 C 401.030101 329.349954 402 322.606847 402 317.480239 C 402 314.801471 401.722886 312.815487 401.122472 311.476103 Z M 401.122472 311.476103 " transform="matrix(0.0845771,0,0,0.0845771,0,0)"/>
</g>
</svg>
